<?xml version="1.0" encoding="UTF-8"?>
<svg width="1000px" height="1000px" viewBox="0 0 37 54" version="1.1" xmlns="http://www.w3.org/2000/svg" xmlns:xlink="http://www.w3.org/1999/xlink">
    <title>Untitled</title>
    <g id="Page-1" stroke="none" stroke-width="1" fill="none" fill-rule="evenodd">
        <g id="Guardia-Logo" transform="translate(0.014692, 0.633396)" fill="#ffffff" fill-rule="nonzero">
            <path d="M10.8546433,29.2894128 C14.5248023,30.8906499 18.1614337,32.4763421 21.7985448,34.0609494 C22.3752913,34.3122247 22.3798391,34.3175415 22.0512209,34.8553064 C20.8558258,36.8114772 19.6605262,38.7677077 18.4613404,40.7215598 C18.3615145,40.884197 18.2899532,41.0747471 18.1076405,41.1796275 C17.8880361,41.1572102 17.8278741,40.9720722 17.7398232,40.8260886 C16.0684583,38.0549673 14.3981394,35.2832141 12.7320078,32.5089517 C12.5375,32.185078 12.3229441,31.9087747 11.9839547,31.7017975 C8.77803239,29.7443632 5.46684537,27.96163 2.33115524,25.8880708 C2.18861969,25.793815 2.00232243,25.744206 1.90554235,25.4520837 C4.92313473,26.7454747 7.8722027,28.0094925 10.8546433,29.2894128 Z M30.9550759,5.33993875 C28.2193837,2.65849861 24.9973533,0.914739432 21.2002155,0.278836795 C17.9066595,-0.272729708 14.6773186,-0.0239890835 11.5611878,1.18599715 C4.72000807,3.84240476 0.055223402,10.4604605 0.000622620776,17.6723721 C-0.0224026722,20.7132462 0.592204652,23.5863659 2.01016334,26.2628499 C2.84654762,27.8415743 3.8005111,29.3594184 4.73171149,30.8862749 C9.04213463,37.9538778 13.3627054,45.0152936 17.6825341,52.0771566 C17.7964595,52.2633973 17.8616908,52.5017861 18.168157,52.5948528 C22.0884558,46.1473469 26.0119018,39.6946553 29.9512086,33.2158807 C29.3856975,32.883847 28.8064775,32.6770965 28.2435474,32.4344519 C23.7490889,30.4972055 19.2527052,28.56437 14.7639092,26.6140762 C12.5865724,25.668073 10.422748,24.6908638 8.25675104,23.7189922 C7.93603629,23.5750857 7.59900182,23.4505031 7.41593512,23.0934146 C6.29772213,20.9122959 5.89447291,18.6060879 6.26902252,16.1882731 C7.26002721,9.79104969 13.185024,5.23124666 19.5858893,6.12444012 C24.3035612,6.78274959 27.4711427,9.4789031 29.2739686,13.8375345 C29.5471069,14.4978824 29.7278044,15.1909652 29.85692,15.8962909 C29.914647,16.2116799 30.0033745,16.4840284 30.4310676,16.4804104 C32.204586,16.465399 33.9782831,16.4694193 35.7519028,16.472927 C36.0188719,16.4734546 36.1490128,16.3740459 36.1251351,16.0983208 C36.111122,15.9364524 36.120337,15.7715711 36.0951599,15.6118187 C35.4736683,11.6690133 33.7856945,8.25650428 30.9550759,5.33993875 M18.565875,18.5201678 C17.0132575,17.8521845 15.461972,17.181075 13.9067707,16.5191653 C13.6339125,16.4030346 13.3684394,16.2337902 13.11115,16.6226062 C12.5282433,17.5034764 11.9076875,18.3598194 11.2890241,19.2164425 C11.0417303,19.5588622 11.1109403,19.7424266 11.4965555,19.9037287 C12.9210231,20.4996053 14.3363741,21.1172762 15.7551912,21.7266682 C19.2352351,23.2213858 22.7164087,24.7135016 26.1949417,26.211724 C28.2103595,27.0797732 30.2236077,27.9529635 32.2325823,28.8357738 C32.5587925,28.979117 32.7541527,28.944737 32.9446075,28.6175731 C33.2796809,28.0419949 33.6802003,27.5047246 34.0202507,26.9317869 C34.2804011,26.4934721 34.6326646,26.1030438 34.8047968,25.5855206 C29.3902752,23.2310477 24.0114567,20.8921049 18.565875,18.5201678 Z" id="Shape"></path>
        </g>
    </g>
</svg>